<svg width="33" height="35" viewBox="0 0 33 35" fill="none" xmlns="http://www.w3.org/2000/svg">
<path d="M14.85 26.6875C14.85 26.1073 15.0673 25.5509 15.4541 25.1407C15.8409 24.7305 16.3655 24.5 16.9125 24.5C17.4595 24.5 17.9841 24.7305 18.3709 25.1407C18.7577 25.5509 18.975 26.1073 18.975 26.6875C18.975 27.2677 18.7577 27.8241 18.3709 28.2343C17.9841 28.6445 17.4595 28.875 16.9125 28.875C16.3655 28.875 15.8409 28.6445 15.4541 28.2343C15.0673 27.8241 14.85 27.2677 14.85 26.6875ZM14.85 17.9375C14.85 17.3573 15.0673 16.8009 15.4541 16.3907C15.8409 15.9805 16.3655 15.75 16.9125 15.75C17.4595 15.75 17.9841 15.9805 18.3709 16.3907C18.7577 16.8009 18.975 17.3573 18.975 17.9375C18.975 18.5177 18.7577 19.0741 18.3709 19.4843C17.9841 19.8945 17.4595 20.125 16.9125 20.125C16.3655 20.125 15.8409 19.8945 15.4541 19.4843C15.0673 19.0741 14.85 18.5177 14.85 17.9375ZM14.85 9.1875C14.85 8.60734 15.0673 8.05094 15.4541 7.6407C15.8409 7.23047 16.3655 7 16.9125 7C17.4595 7 17.9841 7.23047 18.3709 7.6407C18.7577 8.05094 18.975 8.60734 18.975 9.1875C18.975 9.76766 18.7577 10.3241 18.3709 10.7343C17.9841 11.1445 17.4595 11.375 16.9125 11.375C16.3655 11.375 15.8409 11.1445 15.4541 10.7343C15.0673 10.3241 14.85 9.76766 14.85 9.1875Z" fill="white"/>
</svg>
