<svg width="46" height="46" viewBox="0 0 46 46" fill="none" xmlns="http://www.w3.org/2000/svg">
<circle cx="23" cy="23" r="23" fill="#D9D9D9"/>
<path d="M21.4545 34V16.5455H24.1364V34H21.4545ZM22.8182 13.6364C22.2955 13.6364 21.8447 13.4583 21.4659 13.1023C21.0947 12.7462 20.9091 12.3182 20.9091 11.8182C20.9091 11.3182 21.0947 10.8902 21.4659 10.5341C21.8447 10.178 22.2955 10 22.8182 10C23.3409 10 23.7879 10.178 24.1591 10.5341C24.5379 10.8902 24.7273 11.3182 24.7273 11.8182C24.7273 12.3182 24.5379 12.7462 24.1591 13.1023C23.7879 13.4583 23.3409 13.6364 22.8182 13.6364Z" fill="white"/>
</svg>
