<svg width="53" height="53" viewBox="0 0 53 53" fill="none" xmlns="http://www.w3.org/2000/svg">
<circle cx="26" cy="27" r="23" fill="white"/>
<path d="M26.5 4.4165C14.3034 4.4165 4.41669 14.3032 4.41669 26.4998C4.41669 38.6965 14.3034 48.5832 26.5 48.5832C38.6966 48.5832 48.5834 38.6965 48.5834 26.4998C48.5834 14.3032 38.6966 4.4165 26.5 4.4165Z" stroke="#FF5252" stroke-width="4" stroke-linecap="round" stroke-linejoin="round"/>
<path d="M9.43182 40.5141C9.43182 40.5141 14.3542 34.2292 26.5 34.2292C38.6459 34.2292 43.5705 40.5141 43.5705 40.5141M26.5 26.5C28.2571 26.5 29.9422 25.802 31.1846 24.5596C32.427 23.3172 33.125 21.6321 33.125 19.875C33.125 18.1179 32.427 16.4328 31.1846 15.1904C29.9422 13.948 28.2571 13.25 26.5 13.25C24.743 13.25 23.0579 13.948 21.8154 15.1904C20.573 16.4328 19.875 18.1179 19.875 19.875C19.875 21.6321 20.573 23.3172 21.8154 24.5596C23.0579 25.802 24.743 26.5 26.5 26.5Z" stroke="#FF5252" stroke-width="4" stroke-linecap="round" stroke-linejoin="round"/>
<path d="M43 41.0001C43.4688 42.8754 36.3888 48.5 27 48.5C17.6112 48.5 10 42.9331 10 41.0002C10 39.0672 13 35.0001 27 34.0001C38 33.2142 42.5 39 43 41.0001Z" fill="#FF5252"/>
<circle cx="26.5" cy="19.5" r="6.5" fill="#FF5252"/>
</svg>
